HIERARCHY
ROOT Hips
{
	OFFSET -14.64140 90.27770 -84.91600
	CHANNELS 6 Xposition Yposition Zposition Zrotation Xrotation Yrotation
	JOINT Spine
	{
		OFFSET 0.00000 13.20850 -1.60436
		CHANNELS 3 Zrotation Xrotation Yrotation
		JOINT Spine1
		{
			OFFSET 0.00000 8.61716 0.00000
			CHANNELS 3 Zrotation Xrotation Yrotation
			JOINT Spine2
			{
				OFFSET 0.00000 8.61717 0.00000
				CHANNELS 3 Zrotation Xrotation Yrotation
				JOINT Spine3
				{
					OFFSET 0.00000 8.61717 0.00000
					CHANNELS 3 Zrotation Xrotation Yrotation
					JOINT Neck
					{
						OFFSET 0.00000 11.07920 1.10792
						CHANNELS 3 Zrotation Xrotation Yrotation
						JOINT Neck1
						{
							OFFSET 0.00000 7.08032 0.00000
							CHANNELS 3 Zrotation Xrotation Yrotation
							JOINT Head
							{
								OFFSET 0.00000 7.08031 0.00000
								CHANNELS 3 Zrotation Xrotation Yrotation
								End site
								{
									OFFSET 0.00000 0.00000 0.00000
								}
							}
						}
					}
					JOINT RightShoulder
					{
						OFFSET -0.01000 7.91373 5.19711
						CHANNELS 3 Zrotation Xrotation Yrotation
						JOINT RightArm
						{
							OFFSET -18.41580 0.00000 0.00000
							CHANNELS 3 Zrotation Xrotation Yrotation
							JOINT RightForeArm
							{
								OFFSET -29.11090 0.00000 0.00000
								CHANNELS 3 Zrotation Xrotation Yrotation
								JOINT RightHand
								{
									OFFSET -24.65040 0.00000 0.00000
									CHANNELS 3 Zrotation Xrotation Yrotation
									JOINT RightHandThumb1
									{
										OFFSET -5.35114 -0.85590 3.97906
										CHANNELS 3 Zrotation Xrotation Yrotation
										JOINT RightHandThumb2
										{
											OFFSET -4.52789 0.00000 0.00000
											CHANNELS 3 Zrotation Xrotation Yrotation
											JOINT RightHandThumb3
											{
												OFFSET -2.46976 0.00000 0.00000
												CHANNELS 3 Zrotation Xrotation Yrotation
												End site
												{
													OFFSET 0.00000 0.00000 0.00000
												}
											}
										}
									}
									JOINT RightHandIndex1
									{
										OFFSET -14.26970 0.00000 2.88139
										CHANNELS 3 Zrotation Xrotation Yrotation
										JOINT RightHandIndex2
										{
											OFFSET -5.48836 0.00000 0.00000
											CHANNELS 3 Zrotation Xrotation Yrotation
											JOINT RightHandIndex3
											{
												OFFSET -3.01859 0.00000 0.00000
												CHANNELS 3 Zrotation Xrotation Yrotation
												End site
												{
													OFFSET 0.00000 0.00000 0.00000
												}
											}
										}
									}
									JOINT RightHandMiddle1
									{
										OFFSET -14.26970 0.00000 -0.09147
										CHANNELS 3 Zrotation Xrotation Yrotation
										JOINT RightHandMiddle2
										{
											OFFSET -6.17441 0.00000 0.00000
											CHANNELS 3 Zrotation Xrotation Yrotation
											JOINT RightHandMiddle3
											{
												OFFSET -3.56743 0.00000 0.00000
												CHANNELS 3 Zrotation Xrotation Yrotation
												End site
												{
													OFFSET 0.00000 0.00000 0.00000
												}
											}
										}
									}
									JOINT RightHandRing1
									{
										OFFSET -12.69180 0.00000 -3.06433
										CHANNELS 3 Zrotation Xrotation Yrotation
										JOINT RightHandRing2
										{
											OFFSET -5.62556 0.00000 0.00000
											CHANNELS 3 Zrotation Xrotation Yrotation
											JOINT RightHandRing3
											{
												OFFSET -3.56744 0.00000 0.00000
												CHANNELS 3 Zrotation Xrotation Yrotation
												End site
												{
													OFFSET 0.00000 0.00000 0.00000
												}
											}
										}
									}
									JOINT RightHandPinky1
									{
										OFFSET -11.11390 0.00000 -6.03719
										CHANNELS 3 Zrotation Xrotation Yrotation
										JOINT RightHandPinky2
										{
											OFFSET -4.52789 0.00000 0.00000
											CHANNELS 3 Zrotation Xrotation Yrotation
											JOINT RightHandPinky3
											{
												OFFSET -2.46976 0.00000 0.00000
												CHANNELS 3 Zrotation Xrotation Yrotation
												End site
												{
													OFFSET 0.00000 0.00000 0.00000
												}
											}
										}
									}
								}
							}
						}
					}
					JOINT LeftShoulder
					{
						OFFSET 0.01000 7.91373 5.19711
						CHANNELS 3 Zrotation Xrotation Yrotation
						JOINT LeftArm
						{
							OFFSET 18.41580 0.00000 0.00000
							CHANNELS 3 Zrotation Xrotation Yrotation
							JOINT LeftForeArm
							{
								OFFSET 29.11090 0.00000 0.00000
								CHANNELS 3 Zrotation Xrotation Yrotation
								JOINT LeftHand
								{
									OFFSET 24.65040 0.00000 0.00000
									CHANNELS 3 Zrotation Xrotation Yrotation
									JOINT LeftHandThumb1
									{
										OFFSET 5.35114 -0.85590 3.97906
										CHANNELS 3 Zrotation Xrotation Yrotation
										JOINT LeftHandThumb2
										{
											OFFSET 4.52789 0.00000 0.00000
											CHANNELS 3 Zrotation Xrotation Yrotation
											JOINT LeftHandThumb3
											{
												OFFSET 2.46977 0.00000 0.00000
												CHANNELS 3 Zrotation Xrotation Yrotation
												End site
												{
													OFFSET 0.00000 0.00000 0.00000
												}
											}
										}
									}
									JOINT LeftHandIndex1
									{
										OFFSET 14.26970 0.00000 2.88139
										CHANNELS 3 Zrotation Xrotation Yrotation
										JOINT LeftHandIndex2
										{
											OFFSET 5.48836 0.00000 0.00000
											CHANNELS 3 Zrotation Xrotation Yrotation
											JOINT LeftHandIndex3
											{
												OFFSET 3.01859 0.00000 0.00000
												CHANNELS 3 Zrotation Xrotation Yrotation
												End site
												{
													OFFSET 0.00000 0.00000 0.00000
												}
											}
										}
									}
									JOINT LeftHandMiddle1
									{
										OFFSET 14.26970 0.00000 -0.09147
										CHANNELS 3 Zrotation Xrotation Yrotation
										JOINT LeftHandMiddle2
										{
											OFFSET 6.17440 0.00000 0.00000
											CHANNELS 3 Zrotation Xrotation Yrotation
											JOINT LeftHandMiddle3
											{
												OFFSET 3.56744 0.00000 0.00000
												CHANNELS 3 Zrotation Xrotation Yrotation
												End site
												{
													OFFSET 0.00000 0.00000 0.00000
												}
											}
										}
									}
									JOINT LeftHandRing1
									{
										OFFSET 12.69180 0.00000 -3.06433
										CHANNELS 3 Zrotation Xrotation Yrotation
										JOINT LeftHandRing2
										{
											OFFSET 5.62556 0.00000 0.00000
											CHANNELS 3 Zrotation Xrotation Yrotation
											JOINT LeftHandRing3
											{
												OFFSET 3.56744 0.00000 0.00000
												CHANNELS 3 Zrotation Xrotation Yrotation
												End site
												{
													OFFSET 0.00000 0.00000 0.00000
												}
											}
										}
									}
									JOINT LeftHandPinky1
									{
										OFFSET 11.11390 0.00000 -6.03719
										CHANNELS 3 Zrotation Xrotation Yrotation
										JOINT LeftHandPinky2
										{
											OFFSET 4.52789 0.00000 0.00000
											CHANNELS 3 Zrotation Xrotation Yrotation
											JOINT LeftHandPinky3
											{
												OFFSET 2.46976 0.00000 0.00000
												CHANNELS 3 Zrotation Xrotation Yrotation
												End site
												{
													OFFSET 0.00000 0.00000 0.00000
												}
											}
										}
									}
								}
							}
						}
					}
					JOINT pCube4
					{
						OFFSET 0.00000 10.91090 1.10792
						CHANNELS 3 Zrotation Xrotation Yrotation
						End site
						{
							OFFSET 0.00000 0.00000 0.00000
						}
					}
				}
			}
		}
	}
	JOINT RightUpLeg
	{
		OFFSET -9.98441 0.00000 0.00000
		CHANNELS 3 Zrotation Xrotation Yrotation
		JOINT RightLeg
		{
			OFFSET 0.00000 -42.11790 0.00000
			CHANNELS 3 Zrotation Xrotation Yrotation
			JOINT RightFoot
			{
				OFFSET 0.00000 -45.00020 -0.00001
				CHANNELS 3 Zrotation Xrotation Yrotation
				JOINT RightForeFoot
				{
					OFFSET 0.00000 -3.74820 0.00000
					CHANNELS 3 Zrotation Xrotation Yrotation
					JOINT RightToeBase
					{
						OFFSET 0.00000 0.06325 14.43120
						CHANNELS 3 Zrotation Xrotation Yrotation
						End site
						{
							OFFSET 0.00000 0.00000 0.00000
						}
					}
				}
			}
		}
	}
	JOINT LeftUpLeg
	{
		OFFSET 9.98441 0.00000 0.00000
		CHANNELS 3 Zrotation Xrotation Yrotation
		JOINT LeftLeg
		{
			OFFSET 0.00000 -42.11800 0.00000
			CHANNELS 3 Zrotation Xrotation Yrotation
			JOINT LeftFoot
			{
				OFFSET 0.00000 -45.00070 0.00000
				CHANNELS 3 Zrotation Xrotation Yrotation
				JOINT LeftForeFoot
				{
					OFFSET 0.00000 -3.74824 0.00000
					CHANNELS 3 Zrotation Xrotation Yrotation
					JOINT LeftToeBase
					{
						OFFSET 0.00000 0.06325 14.43110
						CHANNELS 3 Zrotation Xrotation Yrotation
						End site
						{
							OFFSET 0.00000 0.00000 0.00000
						}
					}
				}
			}
		}
	}
}
MOTION
Frames: 4
Frame Time: 0.050000
0.0374421354985463 0.008886196022286486 -0.007384742800234212 0.04443393857595179 -0.022529606678339045 0.0038414223445400104 -2.4498331867775787 1.8475199972771292 -0.7773508253726545 -0.994334988518995 3.670658894282121 0.3743922569700333 -1.167687693061452 -1.6177434935150237 -0.05479678697754816 -0.3779674602735078 0.050550974457273516 -0.6929100561308255 -0.15507444748873347 12.819616092324665 0.25268811742511155 -0.23145662458668181 0.17888819428889102 -2.20571227129435 -0.19383942588888617 -14.570940710530843 -0.09896930891303052 -5.622196622499283 2.17644143874241 -13.142764607889683 61.852931611308094 0.38254138534506726 26.206051911463316 0.5027334264048631 -2.9738153923425448 99.27836462721896 9.767233978677236 -0.3122906488950305 -0.6212256528632701 4.541765840264733 -0.11032434318290654 -1.62045846098591 -0.01083844725191618 0.03450972122184892 -56.247834059768266 0.008144344335371504 -0.03898533282706843 -56.20964156562985 -38.78359314533708 -0.0033214914384421244 0.023760983583921667 -0.011078441932622253 -0.0280777452795325 0.033269223893490504 -0.013563626733190183 0.01949500137692425 0.01895262345096637 -36.741412528352605 0.03164047819339929 -0.0037719437929666856 0.025902953101977155 0.01587063752874645 -0.023600183871122307 -0.027683545554884066 -0.03972021135740343 -0.024047576220347606 -19.751236124648997 -0.03897589737980405 0.030331572479456052 0.015034682418584338 -0.03488944371464225 0.017694177804165868 0.045831071044306636 -0.03484304942796962 -0.0013921973472059068 24.009018742402816 -0.002706011303721356 0.030709942789304133 28.891792983912957 -0.031318193717044016 0.010937228267990295 28.90316278105707 0.02860775116998795 -0.03282365318231688 6.240806794362886 1.5616374272836864 12.54303823701274 -63.75706280864487 13.623510107518893 -19.525316275055133 -3.694770936103794 -7.7693175142895745 -85.65430412876526 -3.4812034158315623 1.6301050453218833 -3.0585836547895955 -0.4691007737990321 0.0580008619131799 -8.11034220224543 -0.006536219920983966 0.022463636768232098 44.568641221572896 -0.0016436843081846936 -0.03500028763080563 44.5459916899109 12.43858833743189 0.03017652235235563 0.0346746120544905 0.03336772364078736 -0.000776170833652464 -0.03055486436022364 0.0419528726688352 0.015439515369989987 -0.012661249982971898 11.137548017683386 -0.03505355747513662 0.01720868722022021 0.002896942734681729 -0.042900068478493994 -0.04157586045072833 -0.032792104704451853 0.0027938120535626124 0.020294834165791573 4.819766975194991 0.029675994810710146 -0.01524104668323643 -0.020149576077037212 -0.021443335156268437 0.016532369921536588 0.0034425944526205858 -0.02311120347070989 -0.020211360622024173 -5.624917245939524 0.004523581434124134 0.03845806711620489 -6.729666746102352 -0.025955002702491223 -0.007529924930156297 -6.740061517136573 0.028544171398066566 0.007158017895124443 0.04888320018420242 -0.024376806640165526 0.031912142761274784 8.080488515274277 3.5009035898070118 -19.218542523414612 -0.0376385056011003 10.373805571579014 -0.0025673129354176275 -5.59816466141017 -15.678013145552763 3.2295915074476174 -0.016282991815711287 0.003614356309409326 -0.013744799267030653 -0.009734556838877619 4.673459492790752 0.006841111942790065 12.456130388115826 -8.24396568262008 6.908617633170591 -0.029810752995343658 46.37438038053746 0.030286584332969615 -4.3075786550261235 -14.736860211441819 -3.8074120309586372 -0.04219273310658016 -0.009730891393250745 -0.03166309591388469 0.021159001631217218 -10.75497318789537 -0.014610056853873319 
0.03330974197781871 0.046670421865119216 -0.011569668763899673 -0.02494140155351795 -0.009277500005421113 -0.030580204239126604 -2.5395920129773173 2.265041956827702 -0.7450032069907343 -0.9659202782879529 3.6882214485973677 0.4086018552825946 -1.1359152612481704 -1.485389092970686 -0.11807994402583355 -0.3616825514368731 0.08718796250616404 -0.6987065284831957 -0.25230502086570494 12.531444346165696 0.31642101086750163 -0.21873246809707597 0.05023698100808135 -2.183915242451562 -0.23292612402787544 -14.61412909297123 -0.13367350427894562 -4.970956815757067 1.971521080596968 -12.865420862894457 61.968422747450646 0.7717118174225939 25.672435644460563 1.2818294284567282 -2.065129999565312 97.32322259724818 10.472451609761592 -0.3307650613875965 -1.0428522624789622 4.5254424114678065 -0.12708777575526628 -1.5452362243118176 0.0004069720506025561 0.03532897637477608 -56.27997232371612 0.031358882042594224 -0.002375402010800626 -56.24035231117697 -38.791166176058184 -0.03446304223098077 -0.04694877203961913 -0.0025238742883681065 -0.024417335168435035 0.009829829466861775 0.036710285115275874 0.005085764376697152 -0.018489411567706258 -36.74369220463611 -0.00651230343426556 0.01341152109442026 -0.011325750580098364 -0.04924861603140334 0.03509365446158032 -0.01271806150518372 0.008892152437213889 -0.0378871190249178 -19.72956183112881 0.04318939183399084 0.04425833253794583 -0.026266318955611975 0.03970148633840919 0.020224864564110406 -0.009136048212697362 -0.005627300173727224 0.022853148420492554 24.07751857957951 0.03270609714297514 0.038733589175140797 28.857334623070884 0.03807132398172736 -0.01197607012337032 28.837048620251103 0.02888951918157832 -0.020784244132921313 5.885117347442545 1.4468697455086035 12.272938947936554 -62.87277577729847 13.469127494611731 -20.826241050907722 -3.835794922052303 -6.767740308466622 -86.75759475412363 -4.075653368792384 1.4899671090962143 -2.9921492356370822 -0.46679142268911583 0.021687697746264847 -8.107010303628421 0.010047285366462067 -0.02025818110445844 44.57243296494145 0.010061129843551224 -0.0022050017124361217 44.56588519348507 12.442390455177728 -0.04091993340198037 -0.006867975700648523 -0.04696987709453266 -0.029088485205111973 -0.012959353379403656 -0.0299099440943385 -0.005662576048192959 0.010016549352280902 11.149595890266722 0.017948755524012722 0.03666705754474807 -0.025569787134246298 -0.01176430354427299 0.016412605523451303 0.005551547959469477 -0.024850514043364615 -0.00811266380199985 4.776009741287317 -0.02754086799034049 -0.02153960438156897 -0.015824743916041207 0.023286599066826105 0.029770469500774714 0.007287814245525016 -0.02649717008111312 -0.04386244862836072 -5.56720862224123 -0.01199935105838248 -0.028175684318965305 -6.76765335855768 -0.008250661658532318 -0.02524471233993436 -6.719658549774655 -0.03106254989926756 0.008278531555582492 0.02452449966152016 0.006553854361762453 -0.008361046141043358 8.091212970552553 3.4849537572831366 -19.191885602726778 0.018443944118443124 10.358795551938734 0.06207296404331948 -5.628572502287505 -15.700561247284105 3.1817158270669643 0.013863211023255414 -0.005041732072943007 0.0250697284397035 -0.013144258077715706 4.704047330367982 0.02025190146965335 12.46014369733162 -8.201307068251872 6.887092578673949 0.020073750198140127 46.335185550743525 0.021089635858403077 -4.320647839755709 -14.704399217370687 -3.814943394021675 -0.003070740049134023 -0.03537378895644478 0.030922560754079842 -0.036793021714862297 -10.730003785895352 0.013594401178633198 
0.025950812874634768 -0.045545137863252996 -0.030361473482771392 -0.04722037271793293 0.014078264643651665 -0.027070377692062123 -2.8169194996467724 2.892010057238303 -0.7125236162855021 -0.9888400189010563 3.6688122907353122 0.4307004870017255 -1.1515014635984009 -1.252315639849184 -0.20463118877805392 -0.28732728946865316 0.1583174878705619 -0.7488699892747297 -0.34691988515771793 12.067357047755104 0.3133080886329665 -0.3150845967229426 -0.0901539470404014 -2.241587299551999 -0.2231231380500519 -14.778369532710405 -0.10453606331238073 -4.045217536943944 1.7791839644790601 -12.603096041859585 62.049522076886866 1.962086810955966 24.927837623860142 1.7359275100263463 -1.1238490339523244 94.79820571194587 11.506378306486674 -0.3613279487391706 -1.74067573745835 4.525260403887147 -0.08729345368511948 -1.6034326603739322 -0.03272527664479113 -0.0013469533175416363 -56.24474394139199 -0.045112986807974174 0.00013100197211501113 -56.27619059700158 -38.7936766248634 0.036843075698684814 0.04791907440751515 0.04291783906741668 0.01362211790804106 0.01907925936763443 -0.02967918918168007 -0.016071307283957326 0.022676046932956457 -36.64938126104361 -0.03780247032163456 0.03506333283864491 0.019735252802928965 -1.7076856690006316e-05 -0.042276988473464394 -0.02119720992324888 0.04559643673956164 0.0052691547648744275 -19.758640345501707 -0.007829195428670435 -0.032698291002069085 0.01820902964645813 -0.026829109807260006 -0.048412067745517984 0.008020870319872168 0.02159741711475614 -0.04272074376522007 24.050251962725348 -0.005598193761662687 -0.002206895488817318 28.860302275797803 0.0014261924655281533 -0.030595143636584894 28.838515613592648 0.020985561270486223 -0.02053555163721851 5.043135874887155 1.3163464900348105 12.13880077365034 -62.005333718387455 14.16531379891852 -21.385979763168006 -3.4360590965180964 -6.0331167550539195 -86.65505827616086 -4.81947215407109 1.4952340431357052 -2.79932642540728 -0.4455568212591842 0.11100905313792685 -8.161742024064546 0.04700523988404466 -0.01670530487651883 44.60388749174664 0.025786805464619398 -0.02835085037082819 44.55040259657333 12.414840531185625 0.014487366557274424 -0.022654467887115438 -0.043158972697285435 0.00507389443324065 0.026925318621774403 0.03738474286789031 -0.015133747723792283 0.04665706004487218 11.134051445627046 -0.027127445932786768 -0.030095650752424395 -0.014503597456312524 0.010722696562376618 0.0070226767619810185 -0.020500436991997568 -0.014838371293709421 0.0438140544343842 4.786391395405703 -0.0012852622855339503 0.020043150889683208 0.03473228250298958 0.01349981075915912 -0.015225227857379743 -0.019318521566527285 -0.005303470627043459 0.011341383576057127 -5.600352723407808 -0.030208319189374264 -0.03104744125877373 -6.701909333408468 -0.0371398043535576 0.03248292367993014 -6.743716084449374 -0.00604903332984307 -0.015428494531582121 0.008397702436574443 -0.022292547419532537 0.014272682018614967 8.030911534092578 3.4917458274357274 -19.247861412659635 -0.010250171240045378 10.396369196090296 0.03778604993650046 -5.6043509315477 -15.683704633720934 3.2222614934824065 0.04101723747401834 -0.00016790804721778484 0.0024254008756116664 0.028968296889335957 4.725490781579529 -0.03524605572288323 12.500119910704695 -8.190937520345722 6.914298305732448 0.047019761175801304 46.38932730093857 0.015210582631253966 -4.322137505226185 -14.712662874169501 -3.827062650813 0.03809957742865698 0.04903681700458418 -0.02900073225763899 0.001614547510928823 -10.74282581201322 0.036462119298101246 
0.023304229646022443 0.0068998864638730095 -0.01191069836862494 -0.02275242975805647 -0.021781974759589526 0.028078689350612192 -3.2642599044225773 3.695237356392028 -0.6908436610529558 -0.9577956419474394 3.657260309728059 0.38729731973023707 -1.1204874621117993 -0.9682591878622359 -0.30876015443304994 -0.18331100062239636 0.245450981623084 -0.7731139803040445 -0.3826980432824972 11.598533348350024 0.18882126910246902 -0.35992317085191733 -0.36438331671185703 -2.6331848749195723 -0.312578084337399 -14.959247373390365 -0.10714555550756888 -2.997963079927425 1.4197651416966601 -12.342027074969169 61.82956486069998 3.398889360680386 24.54300228721358 1.826727014187857 -0.16115526210865916 92.37250295978775 12.643533711131111 -0.3919471907925667 -2.566079681505397 4.527570998498112 -0.1266819298426945 -1.6194321080174374 0.006610911261129742 -0.03983455558409644 -56.28207570787555 0.009933507175908947 0.014553616083979166 -56.204258576056226 -38.74159009729484 -0.011484202787234204 -0.0010764872547031346 0.034528550698133716 0.03500115432960813 -0.03925402377652454 -0.03753831961727878 -0.006232642428376606 0.03678931443741014 -36.6993797236652 -0.020240361615228453 -0.04115693532701084 0.02601955446858446 -0.02024738457495089 0.014684114512681427 -0.04392271682694774 -0.014915733312362503 -0.011737273854572496 -19.80395862301739 -0.04966573943068532 0.0019335900658107605 0.03983522908354047 0.025349059746358715 0.004249583498696827 -0.0036429683311729457 0.028235826380695266 -0.03854698646912154 24.097739012057 -0.028316204010675826 0.0226092344086252 28.852660547141515 -0.005469793857301529 0.01779647859407011 28.840796533162642 0.012736543736903127 0.024472005793322368 3.9448667368145243 1.1606055129117434 11.832932832668149 -60.950542451526935 15.04613985785538 -21.81488388415195 -2.4902178281090626 -5.588083143388687 -85.67117422802325 -5.770681204986507 1.4396285499998607 -2.5311428005015504 -0.5050479807383267 0.06582633473859931 -8.114391363165383 -0.04358975898785083 -0.022470350665519542 44.56524253252729 -0.0028688318345698742 -0.04287837403597442 44.57138657660198 12.486017307240667 -0.006731177475107254 0.04282196973925882 -0.00045687302086101805 -0.04756305340222294 0.011341261671774256 -0.03339700889785089 0.02067887242683139 0.03242552559523042 11.0799267729001 -0.02723495112160249 0.015785404317480645 -0.012692831282267177 0.009029144144601752 0.03713958537148508 0.03281159451016168 -0.0044277548043510076 -0.010751876448220952 4.7812773174815915 -0.027247650300818667 -0.01366658497621112 -0.0414445666992411 0.016637690910649743 -0.004054757230698662 0.046011941752107696 -0.0040084269023842834 0.03695316198132557 -5.589027769016624 -0.0015572370417811878 0.001663988126189275 -6.747888476081075 0.041426613257897774 -0.001714112855938289 -6.687657516738473 0.04794429956448172 0.03983682607109141 0.011581214496741288 0.013138454047492492 -0.04439470045794974 8.055373095045068 3.4663900493517734 -19.17866267603043 0.000469109128821747 10.410080720698721 0.035966606442109 -5.631145935600764 -15.634929475179327 3.2007020826111643 0.00794530890842634 0.03948385395039635 -0.01646945922118716 0.04124784450270345 4.656714167791511 0.04145366186563849 12.447157748203619 -8.264045162474662 6.913273614885449 0.006257601321585118 46.38371333343523 -0.036057969564399314 -4.297006724181646 -14.774979504258896 -3.8064085763915316 -0.011778039840590667 0.04355311217524651 -0.024013790773373626 -0.01979594922904301 -10.756251569806459 0.014691978184717916 
